<svg width="16" height="16" viewBox="0 0 16 16" fill="none" xmlns="http://www.w3.org/2000/svg">
<g clip-path="url(#clip0_570_26)">
<path d="M15.6263 8.1497C15.6263 7.49419 15.5731 7.01584 15.458 6.51978H7.97266V9.47843H12.3664C12.2778 10.2137 11.7995 11.321 10.7364 12.0651L10.7215 12.1641L13.0883 13.9976L13.2522 14.0139C14.7581 12.6232 15.6263 10.5769 15.6263 8.1497Z" fill="#4285F4"/>
<path d="M7.97272 15.9449C10.1253 15.9449 11.9324 15.2362 13.2523 14.0138L10.7365 12.0649C10.0633 12.5344 9.15972 12.8622 7.97272 12.8622C5.86445 12.8622 4.07507 11.4715 3.43721 9.54919L3.34372 9.55713L0.882769 11.4617L0.850586 11.5511C2.16161 14.1555 4.85456 15.9449 7.97272 15.9449Z" fill="#34A853"/>
<path d="M3.43701 9.54924C3.2687 9.05318 3.1713 8.52164 3.1713 7.97245C3.1713 7.42319 3.2687 6.89171 3.42815 6.39565L3.42369 6.29L0.931908 4.35486L0.850382 4.39364C0.310046 5.47437 0 6.68799 0 7.97245C0 9.2569 0.310046 10.4705 0.850382 11.5512L3.43701 9.54924Z" fill="#FBBC05"/>
<path d="M7.97272 3.08269C9.46976 3.08269 10.4796 3.72934 11.0554 4.26974L13.3054 2.07285C11.9236 0.788397 10.1253 0 7.97272 0C4.85456 0 2.16161 1.78937 0.850586 4.39371L3.42836 6.39573C4.07507 4.47347 5.86445 3.08269 7.97272 3.08269Z" fill="#EB4335"/>
</g>
<defs>
<clipPath id="clip0_570_26">
<rect width="16" height="16" fill="white"/>
</clipPath>
</defs>
</svg>
