<svg width="1437" height="829" viewBox="0 0 1437 829" fill="none" xmlns="http://www.w3.org/2000/svg">
<rect x="0.5" y="0.5" width="1436" height="828" rx="7.5" fill="white"/>
<rect width="1437" height="2" transform="matrix(1 0 0 -1 0 789)" fill="#D9DCE0"/>
<rect width="1437" height="2" transform="matrix(1 0 0 -1 0 42)" fill="#D9DCE0"/>
<g clip-path="url(#clip0_555_293)">
<path d="M33.6263 21.1497C33.6263 20.4942 33.5731 20.0158 33.458 19.5198H25.9727V22.4784H30.3664C30.2778 23.2137 29.7995 24.321 28.7364 25.065L28.7215 25.1641L31.0883 26.9976L31.2522 27.0139C32.7581 25.6231 33.6263 23.5769 33.6263 21.1497Z" fill="#4285F4"/>
<path d="M25.9727 28.945C28.1253 28.945 29.9324 28.2363 31.2523 27.0138L28.7365 25.065C28.0633 25.5345 27.1597 25.8622 25.9727 25.8622C23.8644 25.8622 22.0751 24.4715 21.4372 22.5492L21.3437 22.5572L18.8828 24.4617L18.8506 24.5512C20.1616 27.1555 22.8546 28.945 25.9727 28.945Z" fill="#34A853"/>
<path d="M21.437 22.5493C21.2687 22.0532 21.1713 21.5217 21.1713 20.9725C21.1713 20.4233 21.2687 19.8918 21.4282 19.3957L21.4237 19.2901L18.9319 17.3549L18.8504 17.3937C18.31 18.4744 18 19.688 18 20.9725C18 22.257 18.31 23.4705 18.8504 24.5513L21.437 22.5493Z" fill="#FBBC05"/>
<path d="M25.9727 16.0827C27.4698 16.0827 28.4796 16.7293 29.0554 17.2697L31.3054 15.0729C29.9236 13.7884 28.1253 13 25.9727 13C22.8546 13 20.1616 14.7894 18.8506 17.3937L21.4284 19.3957C22.0751 17.4735 23.8644 16.0827 25.9727 16.0827Z" fill="#EB4335"/>
</g>
<path d="M58.5107 21.0439V24.6875C58.3877 24.8698 58.1917 25.0749 57.9229 25.3027C57.654 25.526 57.2826 25.722 56.8086 25.8906C56.3392 26.0547 55.7331 26.1367 54.9902 26.1367C54.3841 26.1367 53.8258 26.0319 53.3154 25.8223C52.8096 25.6081 52.3698 25.2982 51.9961 24.8926C51.627 24.4824 51.3398 23.9857 51.1348 23.4023C50.9342 22.8145 50.834 22.1491 50.834 21.4062V20.6338C50.834 19.891 50.9206 19.2279 51.0938 18.6445C51.2715 18.0612 51.5312 17.5667 51.873 17.1611C52.2148 16.751 52.6341 16.4411 53.1309 16.2314C53.6276 16.0173 54.1973 15.9102 54.8398 15.9102C55.6009 15.9102 56.2367 16.0423 56.7471 16.3066C57.262 16.5664 57.6631 16.9264 57.9502 17.3867C58.2419 17.847 58.4287 18.3711 58.5107 18.959H57.1914C57.1322 18.599 57.0137 18.2708 56.8359 17.9746C56.6628 17.6784 56.4144 17.4414 56.0908 17.2637C55.7673 17.0814 55.3503 16.9902 54.8398 16.9902C54.3796 16.9902 53.9808 17.0745 53.6436 17.2432C53.3063 17.4118 53.0283 17.6533 52.8096 17.9678C52.5908 18.2822 52.4268 18.6628 52.3174 19.1094C52.2126 19.556 52.1602 20.0596 52.1602 20.6201V21.4062C52.1602 21.9805 52.2262 22.4932 52.3584 22.9443C52.4951 23.3955 52.6888 23.7806 52.9395 24.0996C53.1901 24.4141 53.4886 24.6533 53.835 24.8174C54.1859 24.9814 54.5732 25.0635 54.9971 25.0635C55.4665 25.0635 55.847 25.0247 56.1387 24.9473C56.4303 24.8652 56.6582 24.7695 56.8223 24.6602C56.9863 24.5462 57.1117 24.4391 57.1982 24.3389V22.1104H54.8945V21.0439H58.5107ZM60.0319 22.3838V22.2266C60.0319 21.6934 60.1093 21.1989 60.2643 20.7432C60.4192 20.2829 60.6426 19.8841 60.9342 19.5469C61.2259 19.2051 61.5791 18.9408 61.9938 18.7539C62.4085 18.5625 62.8733 18.4668 63.3883 18.4668C63.9079 18.4668 64.375 18.5625 64.7897 18.7539C65.209 18.9408 65.5644 19.2051 65.8561 19.5469C66.1523 19.8841 66.3779 20.2829 66.5329 20.7432C66.6878 21.1989 66.7653 21.6934 66.7653 22.2266V22.3838C66.7653 22.917 66.6878 23.4115 66.5329 23.8672C66.3779 24.3229 66.1523 24.7217 65.8561 25.0635C65.5644 25.4007 65.2112 25.665 64.7965 25.8564C64.3864 26.0433 63.9215 26.1367 63.402 26.1367C62.8825 26.1367 62.4153 26.0433 62.0006 25.8564C61.5859 25.665 61.2304 25.4007 60.9342 25.0635C60.6426 24.7217 60.4192 24.3229 60.2643 23.8672C60.1093 23.4115 60.0319 22.917 60.0319 22.3838ZM61.2965 22.2266V22.3838C61.2965 22.7529 61.3398 23.1016 61.4264 23.4297C61.513 23.7533 61.6429 24.0404 61.8161 24.291C61.9938 24.5417 62.2148 24.7399 62.4791 24.8857C62.7435 25.027 63.0511 25.0977 63.402 25.0977C63.7483 25.0977 64.0514 25.027 64.3112 24.8857C64.5755 24.7399 64.7942 24.5417 64.9674 24.291C65.1406 24.0404 65.2705 23.7533 65.3571 23.4297C65.4482 23.1016 65.4938 22.7529 65.4938 22.3838V22.2266C65.4938 21.862 65.4482 21.5179 65.3571 21.1943C65.2705 20.8662 65.1383 20.5768 64.9606 20.3262C64.7874 20.071 64.5687 19.8704 64.3043 19.7246C64.0446 19.5788 63.7392 19.5059 63.3883 19.5059C63.042 19.5059 62.7366 19.5788 62.4723 19.7246C62.2125 19.8704 61.9938 20.071 61.8161 20.3262C61.6429 20.5768 61.513 20.8662 61.4264 21.1943C61.3398 21.5179 61.2965 21.862 61.2965 22.2266ZM67.8762 22.3838V22.2266C67.8762 21.6934 67.9537 21.1989 68.1087 20.7432C68.2636 20.2829 68.4869 19.8841 68.7786 19.5469C69.0703 19.2051 69.4234 18.9408 69.8382 18.7539C70.2529 18.5625 70.7177 18.4668 71.2327 18.4668C71.7522 18.4668 72.2193 18.5625 72.6341 18.7539C73.0533 18.9408 73.4088 19.2051 73.7005 19.5469C73.9967 19.8841 74.2223 20.2829 74.3772 20.7432C74.5322 21.1989 74.6096 21.6934 74.6096 22.2266V22.3838C74.6096 22.917 74.5322 23.4115 74.3772 23.8672C74.2223 24.3229 73.9967 24.7217 73.7005 25.0635C73.4088 25.4007 73.0556 25.665 72.6409 25.8564C72.2307 26.0433 71.7659 26.1367 71.2464 26.1367C70.7268 26.1367 70.2597 26.0433 69.845 25.8564C69.4303 25.665 69.0748 25.4007 68.7786 25.0635C68.4869 24.7217 68.2636 24.3229 68.1087 23.8672C67.9537 23.4115 67.8762 22.917 67.8762 22.3838ZM69.1409 22.2266V22.3838C69.1409 22.7529 69.1842 23.1016 69.2708 23.4297C69.3574 23.7533 69.4873 24.0404 69.6604 24.291C69.8382 24.5417 70.0592 24.7399 70.3235 24.8857C70.5878 25.027 70.8955 25.0977 71.2464 25.0977C71.5927 25.0977 71.8958 25.027 72.1555 24.8857C72.4199 24.7399 72.6386 24.5417 72.8118 24.291C72.985 24.0404 73.1149 23.7533 73.2014 23.4297C73.2926 23.1016 73.3382 22.7529 73.3382 22.3838V22.2266C73.3382 21.862 73.2926 21.5179 73.2014 21.1943C73.1149 20.8662 72.9827 20.5768 72.805 20.3262C72.6318 20.071 72.413 19.8704 72.1487 19.7246C71.8889 19.5788 71.5836 19.5059 71.2327 19.5059C70.8863 19.5059 70.581 19.5788 70.3167 19.7246C70.0569 19.8704 69.8382 20.071 69.6604 20.3262C69.4873 20.5768 69.3574 20.8662 69.2708 21.1943C69.1842 21.5179 69.1409 21.862 69.1409 22.2266ZM80.8476 18.6035H81.996V25.8428C81.996 26.4945 81.8639 27.0505 81.5995 27.5107C81.3352 27.971 80.9661 28.3197 80.4921 28.5566C80.0227 28.7982 79.4804 28.9189 78.8652 28.9189C78.6099 28.9189 78.3092 28.8779 77.9628 28.7959C77.621 28.7184 77.2838 28.584 76.9511 28.3926C76.623 28.2057 76.3473 27.9528 76.1239 27.6338L76.787 26.8818C77.0969 27.2555 77.4205 27.5153 77.7577 27.6611C78.0995 27.807 78.4368 27.8799 78.7695 27.8799C79.1705 27.8799 79.5168 27.8047 79.8085 27.6543C80.1002 27.5039 80.3258 27.2806 80.4853 26.9844C80.6493 26.6927 80.7314 26.3327 80.7314 25.9043V20.2305L80.8476 18.6035ZM75.7548 22.3838V22.2402C75.7548 21.6751 75.8209 21.1624 75.953 20.7021C76.0898 20.2373 76.2835 19.8385 76.5341 19.5059C76.7893 19.1732 77.0969 18.918 77.457 18.7402C77.817 18.5579 78.2226 18.4668 78.6737 18.4668C79.1386 18.4668 79.5442 18.5488 79.8905 18.7129C80.2415 18.8724 80.5377 19.1071 80.7792 19.417C81.0253 19.7223 81.219 20.0915 81.3603 20.5244C81.5015 20.9574 81.5995 21.4473 81.6542 21.9941V22.623C81.6041 23.1654 81.5061 23.653 81.3603 24.0859C81.219 24.5189 81.0253 24.888 80.7792 25.1934C80.5377 25.4987 80.2415 25.7334 79.8905 25.8975C79.5396 26.057 79.1295 26.1367 78.6601 26.1367C78.218 26.1367 77.817 26.0433 77.457 25.8564C77.1015 25.6696 76.7961 25.4076 76.5409 25.0703C76.2857 24.7331 76.0898 24.3366 75.953 23.8809C75.8209 23.4206 75.7548 22.9215 75.7548 22.3838ZM77.0195 22.2402V22.3838C77.0195 22.7529 77.0559 23.0993 77.1288 23.4229C77.2063 23.7464 77.3225 24.0312 77.4775 24.2773C77.637 24.5234 77.8398 24.7171 78.0859 24.8584C78.332 24.9951 78.6259 25.0635 78.9677 25.0635C79.387 25.0635 79.7333 24.9746 80.0068 24.7969C80.2802 24.6191 80.4967 24.3844 80.6562 24.0928C80.8202 23.8011 80.9478 23.4844 81.039 23.1426V21.4951C80.9889 21.2445 80.9114 21.0029 80.8066 20.7705C80.7063 20.5335 80.5741 20.3239 80.4101 20.1416C80.2506 19.9548 80.0523 19.8066 79.8154 19.6973C79.5784 19.5879 79.3004 19.5332 78.9814 19.5332C78.635 19.5332 78.3365 19.6061 78.0859 19.752C77.8398 19.8932 77.637 20.0892 77.4775 20.3398C77.3225 20.5859 77.2063 20.873 77.1288 21.2012C77.0559 21.5247 77.0195 21.8711 77.0195 22.2402ZM85.1509 15.5V26H83.8795V15.5H85.1509ZM90.1105 26.1367C89.5956 26.1367 89.1284 26.0501 88.7092 25.877C88.2945 25.6992 87.9367 25.4508 87.6359 25.1318C87.3397 24.8128 87.1118 24.4346 86.9523 23.9971C86.7928 23.5596 86.7131 23.0811 86.7131 22.5615V22.2744C86.7131 21.6729 86.802 21.1374 86.9797 20.668C87.1574 20.194 87.399 19.793 87.7043 19.4648C88.0096 19.1367 88.356 18.8883 88.7434 18.7197C89.1307 18.5511 89.5318 18.4668 89.9465 18.4668C90.4751 18.4668 90.9309 18.5579 91.3137 18.7402C91.701 18.9225 92.0178 19.1777 92.2639 19.5059C92.51 19.8294 92.6923 20.2122 92.8107 20.6543C92.9292 21.0918 92.9885 21.5703 92.9885 22.0898V22.6572H87.465V21.625H91.7238V21.5293C91.7056 21.2012 91.6372 20.8822 91.5187 20.5723C91.4048 20.2624 91.2225 20.0072 90.9719 19.8066C90.7212 19.6061 90.3794 19.5059 89.9465 19.5059C89.6594 19.5059 89.3951 19.5674 89.1535 19.6904C88.912 19.8089 88.7046 19.9867 88.5314 20.2236C88.3583 20.4606 88.2238 20.75 88.1281 21.0918C88.0324 21.4336 87.9846 21.8278 87.9846 22.2744V22.5615C87.9846 22.9124 88.0324 23.2428 88.1281 23.5527C88.2284 23.8581 88.3719 24.127 88.5588 24.3594C88.7502 24.5918 88.9803 24.7741 89.2492 24.9062C89.5227 25.0384 89.8326 25.1045 90.1789 25.1045C90.6255 25.1045 91.0038 25.0133 91.3137 24.8311C91.6236 24.6488 91.8947 24.4049 92.1271 24.0996L92.8928 24.708C92.7333 24.9495 92.5305 25.1797 92.2844 25.3984C92.0383 25.6172 91.7352 25.7949 91.3752 25.9316C91.0197 26.0684 90.5982 26.1367 90.1105 26.1367ZM103.154 23.4844C103.154 23.252 103.117 23.0469 103.044 22.8691C102.976 22.6868 102.853 22.5228 102.675 22.377C102.502 22.2311 102.261 22.0921 101.951 21.96C101.645 21.8278 101.258 21.6934 100.789 21.5566C100.296 21.4108 99.852 21.249 99.4555 21.0713C99.0591 20.889 98.7195 20.6816 98.437 20.4492C98.1544 20.2168 97.938 19.9502 97.7876 19.6494C97.6372 19.3486 97.562 19.0046 97.562 18.6172C97.562 18.2298 97.6417 17.8721 97.8013 17.5439C97.9608 17.2158 98.1886 16.931 98.4848 16.6895C98.7856 16.4434 99.1434 16.252 99.5581 16.1152C99.9728 15.9785 100.435 15.9102 100.946 15.9102C101.693 15.9102 102.327 16.0537 102.846 16.3408C103.37 16.6234 103.769 16.9948 104.042 17.4551C104.316 17.9108 104.453 18.3984 104.453 18.918H103.14C103.14 18.5443 103.06 18.2139 102.901 17.9268C102.741 17.6351 102.5 17.4072 102.176 17.2432C101.853 17.0745 101.443 16.9902 100.946 16.9902C100.476 16.9902 100.089 17.0609 99.7837 17.2021C99.4783 17.3434 99.2505 17.5348 99.1001 17.7764C98.9542 18.0179 98.8813 18.2936 98.8813 18.6035C98.8813 18.8132 98.9246 19.0046 99.0112 19.1777C99.1024 19.3464 99.2414 19.5036 99.4282 19.6494C99.6196 19.7952 99.8611 19.9297 100.153 20.0527C100.449 20.1758 100.802 20.2943 101.212 20.4082C101.777 20.5677 102.265 20.7454 102.675 20.9414C103.085 21.1374 103.423 21.3584 103.687 21.6045C103.956 21.846 104.154 22.1217 104.282 22.4316C104.414 22.737 104.48 23.0833 104.48 23.4707C104.48 23.8763 104.398 24.2432 104.234 24.5713C104.07 24.8994 103.835 25.1797 103.53 25.4121C103.224 25.6445 102.858 25.8245 102.429 25.9521C102.005 26.0752 101.531 26.1367 101.007 26.1367C100.547 26.1367 100.094 26.0729 99.647 25.9453C99.2049 25.8177 98.8016 25.6263 98.437 25.3711C98.077 25.1159 97.7876 24.8014 97.5688 24.4277C97.3546 24.0495 97.2475 23.612 97.2475 23.1152H98.56C98.56 23.457 98.6261 23.751 98.7583 23.9971C98.8904 24.2386 99.0705 24.4391 99.2983 24.5986C99.5307 24.7581 99.7928 24.8766 100.084 24.9541C100.381 25.027 100.688 25.0635 101.007 25.0635C101.468 25.0635 101.857 24.9997 102.176 24.8721C102.495 24.7445 102.737 24.5622 102.901 24.3252C103.069 24.0882 103.154 23.8079 103.154 23.4844ZM108.927 18.6035V19.5742H104.928V18.6035H108.927ZM106.281 16.8057H107.546V24.168C107.546 24.4186 107.585 24.6077 107.662 24.7354C107.74 24.863 107.84 24.9473 107.963 24.9883C108.086 25.0293 108.218 25.0498 108.359 25.0498C108.464 25.0498 108.574 25.0407 108.688 25.0225C108.806 24.9997 108.895 24.9814 108.954 24.9678L108.961 26C108.861 26.0319 108.729 26.0615 108.565 26.0889C108.405 26.1208 108.211 26.1367 107.984 26.1367C107.674 26.1367 107.389 26.0752 107.129 25.9521C106.869 25.8291 106.662 25.624 106.507 25.3369C106.357 25.0452 106.281 24.6533 106.281 24.1611V16.8057ZM109.799 22.3838V22.2266C109.799 21.6934 109.876 21.1989 110.031 20.7432C110.186 20.2829 110.409 19.8841 110.701 19.5469C110.993 19.2051 111.346 18.9408 111.761 18.7539C112.175 18.5625 112.64 18.4668 113.155 18.4668C113.675 18.4668 114.142 18.5625 114.556 18.7539C114.976 18.9408 115.331 19.2051 115.623 19.5469C115.919 19.8841 116.145 20.2829 116.3 20.7432C116.455 21.1989 116.532 21.6934 116.532 22.2266V22.3838C116.532 22.917 116.455 23.4115 116.3 23.8672C116.145 24.3229 115.919 24.7217 115.623 25.0635C115.331 25.4007 114.978 25.665 114.563 25.8564C114.153 26.0433 113.688 26.1367 113.169 26.1367C112.649 26.1367 112.182 26.0433 111.767 25.8564C111.353 25.665 110.997 25.4007 110.701 25.0635C110.409 24.7217 110.186 24.3229 110.031 23.8672C109.876 23.4115 109.799 22.917 109.799 22.3838ZM111.063 22.2266V22.3838C111.063 22.7529 111.107 23.1016 111.193 23.4297C111.28 23.7533 111.41 24.0404 111.583 24.291C111.761 24.5417 111.982 24.7399 112.246 24.8857C112.51 25.027 112.818 25.0977 113.169 25.0977C113.515 25.0977 113.818 25.027 114.078 24.8857C114.342 24.7399 114.561 24.5417 114.734 24.291C114.907 24.0404 115.037 23.7533 115.124 23.4297C115.215 23.1016 115.261 22.7529 115.261 22.3838V22.2266C115.261 21.862 115.215 21.5179 115.124 21.1943C115.037 20.8662 114.905 20.5768 114.727 20.3262C114.554 20.071 114.335 19.8704 114.071 19.7246C113.811 19.5788 113.506 19.5059 113.155 19.5059C112.809 19.5059 112.503 19.5788 112.239 19.7246C111.979 19.8704 111.761 20.071 111.583 20.3262C111.41 20.5768 111.28 20.8662 111.193 21.1943C111.107 21.5179 111.063 21.862 111.063 22.2266ZM119.243 19.7656V26H117.978V18.6035H119.208L119.243 19.7656ZM121.553 18.5625L121.546 19.7383C121.441 19.7155 121.341 19.7018 121.246 19.6973C121.154 19.6882 121.05 19.6836 120.931 19.6836C120.639 19.6836 120.382 19.7292 120.159 19.8203C119.935 19.9115 119.746 20.0391 119.591 20.2031C119.436 20.3672 119.313 20.5632 119.222 20.791C119.135 21.0143 119.079 21.2604 119.051 21.5293L118.696 21.7344C118.696 21.2878 118.739 20.8685 118.826 20.4766C118.917 20.0846 119.056 19.7383 119.243 19.4375C119.429 19.1322 119.666 18.8952 119.954 18.7266C120.245 18.5534 120.592 18.4668 120.993 18.4668C121.084 18.4668 121.189 18.4782 121.307 18.501C121.426 18.5192 121.508 18.5397 121.553 18.5625ZM125.515 26.1367C125 26.1367 124.533 26.0501 124.113 25.877C123.699 25.6992 123.341 25.4508 123.04 25.1318C122.744 24.8128 122.516 24.4346 122.356 23.9971C122.197 23.5596 122.117 23.0811 122.117 22.5615V22.2744C122.117 21.6729 122.206 21.1374 122.384 20.668C122.562 20.194 122.803 19.793 123.108 19.4648C123.414 19.1367 123.76 18.8883 124.147 18.7197C124.535 18.5511 124.936 18.4668 125.351 18.4668C125.879 18.4668 126.335 18.5579 126.718 18.7402C127.105 18.9225 127.422 19.1777 127.668 19.5059C127.914 19.8294 128.096 20.2122 128.215 20.6543C128.333 21.0918 128.393 21.5703 128.393 22.0898V22.6572H122.869V21.625H127.128V21.5293C127.11 21.2012 127.041 20.8822 126.923 20.5723C126.809 20.2624 126.627 20.0072 126.376 19.8066C126.125 19.6061 125.784 19.5059 125.351 19.5059C125.064 19.5059 124.799 19.5674 124.558 19.6904C124.316 19.8089 124.109 19.9867 123.936 20.2236C123.762 20.4606 123.628 20.75 123.532 21.0918C123.437 21.4336 123.389 21.8278 123.389 22.2744V22.5615C123.389 22.9124 123.437 23.2428 123.532 23.5527C123.633 23.8581 123.776 24.127 123.963 24.3594C124.154 24.5918 124.384 24.7741 124.653 24.9062C124.927 25.0384 125.237 25.1045 125.583 25.1045C126.03 25.1045 126.408 25.0133 126.718 24.8311C127.028 24.6488 127.299 24.4049 127.531 24.0996L128.297 24.708C128.137 24.9495 127.935 25.1797 127.689 25.3984C127.442 25.6172 127.139 25.7949 126.779 25.9316C126.424 26.0684 126.002 26.1367 125.515 26.1367Z" fill="#5F6368"/>
<rect x="0.5" y="0.5" width="1436" height="828" rx="7.5" stroke="#D9DCE0"/>
<defs>
<clipPath id="clip0_555_293">
<rect width="16" height="16" fill="white" transform="translate(18 13)"/>
</clipPath>
</defs>
</svg>
